<svg width="16541" height="16305" viewBox="0 0 16541 16305" fill="none" xmlns="http://www.w3.org/2000/svg">
<path d="M15860.3 6903.27C16796.5 7881.7 16762.3 9433.84 15783.9 10370.1L10232.9 15681.8C9337.85 16538.2 7918.04 16506.9 7061.62 15611.9C5990.71 14492.8 6349.65 12650.7 7762.43 12015.6L9069.2 11428C9767.85 11113.9 10333.3 10563.5 10666.2 9873.54L11602.8 7931.88C11671.4 7789.77 11751.8 7653.69 11843.2 7525.11L12090.4 7177.49C12982.4 5923.1 14796.1 5791.16 15860.3 6903.27Z" fill="#E22B86"/>
<path d="M696.14 9465.48C-248.816 8495.46 -228.504 6943.07 741.509 5998.12L6244.82 636.962C7132.13 -227.426 8552.16 -208.846 9416.55 678.462C10497.4 1788.01 10155 3633.16 8747.94 4280.96L7446.48 4880.15C6750.67 5200.5 6190.13 5755.98 5863.49 6448.87L4944.25 8398.82C4876.97 8541.54 4797.77 8678.33 4707.48 8807.73L4463.41 9157.54C3582.65 10419.9 1770.2 10568 696.14 9465.48Z" fill="#E22B86"/>
<path d="M9596.14 9640.74C8860.44 10372.6 7630.63 10329.2 6849.28 9543.8C6067.92 8758.38 6030.91 7528.35 6766.61 6796.47C7502.31 6064.58 8732.13 6107.98 9513.48 6893.41C10294.8 7678.83 10331.8 8908.86 9596.14 9640.74Z" fill="#E22B86"/>
</svg>
